<svg width="24" height="24" viewBox="0 0 24 24" xmlns="http://www.w3.org/2000/svg" focusable="false"><path d="M1.45 3.546a.8.8 0 01-.369-1.07l.013-.027a.8.8 0 011.07-.368c.451.2 1.296.691 3.189 1.191.99.183 6.569.882 16.738 2.097.423.061.68.437.594.843l-1.448 6.786c-.127.517-.526.67-1.048.698l-10.793.547c-.448.023-.818.51-.705.953l.17.86c.139.645.593 1.296 2.14 1.296l8.008.149c1.149.047 1.92.101 2.563.914.304.386.46.758.336 1.148-.125.39-.67.544-.93.356-.336-.241-.367-.628-1.462-.628h-8.165c-1.631 0-1.792-.286-2.513-.286-.819 0-1.345.32-1.934.714-.393.262-.66.448-.801.555-.177.18-.309.297-.267.548.026.159.026.326-.007.498a1.38 1.38 0 01-1.125 1.107c-.923.144-1.706-.655-1.565-1.596a1.384 1.384 0 011.087-1.147c.169-.033.332-.033.487-.006.247.042.463-.114.64-.294l.969-1.133c.187-.19.678-.96.515-1.594L4.048 5.86c-.15-.6-.629-1.358-1.015-1.54l-1.584-.774zm17.926 16.648a1.125 1.125 0 110 2.25 1.125 1.125 0 010-2.25zM7.526 7.126a.85.85 0 100-1.7.85.85 0 000 1.7zm3.81.405a.85.85 0 100-1.7.85.85 0 000 1.7zM9.432 9.929a.85.85 0 100-1.7.85.85 0 000 1.7zm-1.148 2.86a.85.85 0 100-1.7.85.85 0 000 1.7zm6.835-4.909a.85.85 0 100-1.7.85.85 0 000 1.7zm-2.002 2.179a.85.85 0 100-1.7.85.85 0 000 1.7zm-1.337 2.582a.85.85 0 100-1.7.85.85 0 000 1.7zm7.166-4.35a.85.85 0 100-1.7.85.85 0 000 1.7zm-2.12 1.891a.85.85 0 100-1.7.85.85 0 000 1.7zM15.19 12.51a.85.85 0 100-1.7.85.85 0 000 1.7zm3.41-.146a.85.85 0 100-1.7.85.85 0 000 1.7z" fill-rule="evenodd"></path></svg>